<svg width="20" height="15" viewBox="0 0 20 15" fill="none" xmlns="http://www.w3.org/2000/svg">
<path d="M9.69998 10.25C7.39998 5.75 5.04997 3.1 4.59997 4.4C4.49997 4.75 3.99998 5 3.44998 5C2.84998 5 2.49997 5.35 2.49997 6C2.49997 6.7 2.14995 7 1.29995 7C-0.300047 7 0.0499717 5.45 2.09997 3.75C3.54997 2.5 4.29998 2.3 6.19998 2.5C6.69998 2.55 8.09995 2.05 9.29995 1.45L11.45 0.25L12.85 1.3C14.3 2.35 19.85 12.35 19.25 12.9C19.1 13.05 17.8 13.2 16.35 13.25C14.15 13.25 13.75 13.4 13.9 14.15C14 14.7 13.7 15 13.1 15C12.4 15 11.5 13.75 9.69998 10.25Z" fill="#D6D3EF"/>
</svg>
